<?xml version="1.0" standalone="no"?>
<!DOCTYPE svg PUBLIC "-//W3C//DTD SVG 20010904//EN"
 "http://www.w3.org/TR/2001/REC-SVG-20010904/DTD/svg10.dtd">
<svg version="1.0" xmlns="http://www.w3.org/2000/svg"
 width="1000.000000pt" height="1000.000000pt" viewBox="0 0 1000.000000 1000.000000"
 preserveAspectRatio="xMidYMid meet">

<g transform="translate(0.000000,1000.000000) scale(0.100000,-0.100000)"
fill="#000000" stroke="none">
<path d="M2260 7347 c-77 -19 -110 -34 -283 -135 -83 -49 -188 -108 -232 -132
-185 -101 -269 -239 -268 -440 0 -129 24 -188 156 -384 62 -91 365 -541 674
-1000 310 -458 565 -840 568 -847 3 -9 -58 -56 -181 -139 -259 -174 -313 -238
-314 -366 0 -78 41 -164 108 -225 75 -69 1179 -981 1223 -1011 22 -15 66 -32
97 -39 146 -30 288 56 336 205 9 27 190 561 403 1185 212 625 399 1176 415
1224 17 49 34 85 39 80 7 -7 387 -1113 744 -2167 129 -378 149 -420 228 -473
62 -42 118 -57 188 -50 79 7 132 33 224 111 166 141 797 667 975 813 189 155
227 198 249 278 15 55 14 92 -5 155 -22 76 -101 150 -301 285 -149 100 -161
110 -151 129 6 12 170 263 364 558 194 295 427 650 517 790 91 139 207 315
260 390 120 174 177 272 218 373 28 70 31 88 27 150 -4 58 -13 89 -51 168 -53
112 -126 193 -217 241 -30 16 -145 79 -255 142 -227 128 -287 149 -400 141
-39 -3 -95 -14 -125 -25 -50 -17 -517 -296 -1945 -1159 -553 -334 -516 -313
-550 -313 -18 0 -443 250 -1238 727 -666 400 -1234 735 -1262 745 -72 24 -169
30 -235 15z m837 -716 c367 -222 677 -411 688 -422 19 -19 19 -19 -15 -9 -310
89 -1900 565 -1900 569 0 6 373 222 439 254 76 37 66 42 788 -392z m203 -618
c740 -218 1349 -400 1353 -403 8 -7 -1468 -1025 -1485 -1025 -6 0 -1216 1788
-1225 1813 -3 6 -1 12 3 12 5 0 614 -179 1354 -397z m4803 383 c-76 -129
-1200 -1836 -1208 -1834 -12 3 -1513 1014 -1533 1032 -10 10 286 100 1350 413
750 221 1371 402 1381 402 13 1 16 -3 10 -13z m-3937 -1531 c-3 -9 -141 -205
-307 -436 -244 -341 -304 -418 -314 -407 -7 7 -55 76 -108 154 l-96 140 412
282 c226 155 413 282 415 282 2 0 1 -7 -2 -15z m274 -247 c-21 -62 -153 -454
-294 -871 -140 -417 -259 -765 -264 -773 -7 -12 -125 81 -573 451 -310 257
-565 470 -566 473 -3 8 322 232 336 232 5 0 64 -81 131 -180 66 -98 135 -191
153 -206 110 -93 292 -87 392 13 17 16 97 124 180 239 399 558 527 734 535
734 5 0 -9 -51 -30 -112z"/>
</g>
</svg>
